<?xml version="1.0" standalone="no"?>
<!DOCTYPE svg PUBLIC "-//W3C//DTD SVG 20010904//EN"
 "http://www.w3.org/TR/2001/REC-SVG-20010904/DTD/svg10.dtd">
<svg version="1.0" xmlns="http://www.w3.org/2000/svg"
 width="200px" height="100px" viewBox="0 0 1280.000000 640.000000"
 preserveAspectRatio="xMidYMid meet">
<metadata>
Created by potrace 1.15, written by Peter Selinger 2001-2017
</metadata>
<g transform="translate(0.000000,640.000000) scale(0.100000,-0.100000)"
fill="#fff" stroke="none">
<path d="M9985 4053 c-199 -35 -390 -121 -691 -309 -163 -102 -232 -138 -317
-168 -18 -6 -18 -7 0 -38 32 -55 135 -152 193 -180 104 -50 197 -61 450 -55
254 6 311 14 686 102 351 83 453 98 609 92 100 -4 148 -11 211 -31 88 -28 187
-87 223 -132 l23 -29 -39 -7 c-50 -8 -131 -45 -216 -96 -37 -23 -73 -42 -79
-42 -7 0 -29 16 -49 35 l-36 36 -145 -70 c-79 -38 -150 -76 -157 -85 -16 -19
-6 -36 22 -36 19 0 141 40 199 65 12 5 25 -2 43 -21 31 -33 27 -39 -63 -92
-76 -45 -107 -75 -97 -92 13 -21 68 -4 154 49 47 28 88 51 93 51 4 0 34 -18
66 -39 78 -53 146 -74 225 -69 77 5 164 45 220 102 l38 40 33 -17 c17 -10 67
-48 111 -86 190 -162 303 -221 420 -221 l45 0 0 -47 c0 -120 112 -242 272
-299 21 -7 38 -11 38 -8 0 3 -10 23 -22 44 -13 21 -20 42 -16 46 15 15 40 -8
61 -56 12 -27 25 -50 28 -50 13 0 18 65 10 103 -5 21 -29 64 -54 95 -74 96
-85 134 -47 172 l21 21 31 -27 c82 -68 227 -79 285 -21 54 54 35 168 -38 230
-45 39 -122 67 -183 67 -75 0 -113 17 -138 61 -34 60 -117 109 -186 109 -62 0
-101 -17 -135 -62 l-25 -32 -84 54 c-254 163 -364 220 -424 220 -15 0 -27 7
-30 18 -17 58 -67 133 -133 201 -222 226 -612 434 -942 501 -117 24 -341 26
-464 3z"/>
<path d="M710 3795 c-47 -7 -121 -24 -166 -39 -149 -48 -369 -174 -489 -279
l-49 -44 89 -6 c159 -12 252 -46 470 -172 268 -156 491 -237 782 -284 234 -39
338 -45 800 -45 l453 -1 56 -84 c62 -92 93 -155 94 -187 0 -11 -13 -30 -30
-42 -37 -28 -38 -51 -4 -91 52 -62 288 -202 314 -186 19 12 10 33 -30 69 -22
20 -38 36 -36 36 2 0 30 -13 61 -30 89 -47 126 -34 89 30 -21 34 -62 65 -152
113 l-62 33 69 22 c38 12 81 34 96 48 24 22 27 30 21 66 -8 47 -34 102 -87
181 l-39 57 26 10 c15 6 47 15 72 21 45 10 49 8 162 -49 63 -32 145 -67 183
-77 l67 -18 0 -48 c0 -60 -7 -79 -30 -79 -34 0 -49 -12 -61 -47 -13 -40 -1
-56 36 -48 11 2 37 7 57 10 24 4 46 16 62 36 26 31 56 114 56 157 0 24 1 24
60 18 74 -9 160 -34 160 -47 0 -5 -7 -26 -15 -46 -19 -44 -19 -43 3 -43 24 0
79 58 87 91 10 39 -32 81 -105 108 -33 12 -60 24 -60 26 0 3 19 14 41 26 23
11 63 41 90 66 41 38 51 43 68 34 29 -16 120 -13 172 4 86 29 127 88 109 156
-32 117 -163 169 -300 118 -90 -34 -109 -34 -174 0 -93 49 -182 39 -238 -27
-15 -18 -29 -45 -33 -61 l-6 -30 -328 -3 -327 -3 -118 -59 c-137 -68 -163 -71
-283 -31 -102 34 -242 108 -548 290 -453 268 -629 348 -842 380 -115 17 -177
17 -293 0z"/>
<path d="M7930 3323 c-68 -26 -116 -106 -105 -174 l7 -39 -59 0 c-73 0 -381
-26 -471 -40 -105 -16 -215 -41 -243 -56 -23 -11 -36 -11 -95 6 -208 60 -440
108 -684 142 -126 17 -588 17 -690 0 -260 -44 -438 -96 -695 -202 -257 -105
-396 -149 -472 -150 -18 0 -33 -3 -33 -7 1 -12 198 -169 288 -229 101 -67 232
-134 337 -171 75 -26 92 -28 277 -31 178 -3 204 -1 280 19 115 31 257 90 508
212 244 119 394 179 525 212 97 25 224 45 282 45 l35 0 -60 -40 c-33 -22 -103
-81 -154 -130 l-95 -89 -41 42 -41 41 -61 -67 c-83 -91 -210 -191 -292 -231
-67 -32 -67 -33 -42 -44 25 -12 69 -7 89 9 6 4 17 4 25 -1 45 -29 133 10 235
103 68 62 71 63 100 51 40 -17 139 -17 196 0 97 30 219 103 326 196 40 35 48
38 125 43 55 3 136 21 238 50 199 58 275 74 382 83 l87 7 28 -31 c54 -59 200
-102 347 -102 81 0 89 -4 131 -70 27 -41 30 -43 33 -21 8 56 -9 115 -44 148
l-35 32 30 16 c17 8 45 15 63 15 31 0 160 -29 201 -45 31 -12 21 40 -13 68
-52 44 -90 50 -267 44 -90 -3 -163 -4 -163 -3 0 2 5 17 11 35 14 39 41 56 68
41 27 -14 125 -13 174 2 57 17 117 76 117 116 0 100 -93 181 -208 182 -31 0
-85 -11 -133 -27 -80 -27 -81 -27 -112 -9 -82 49 -102 56 -162 55 -33 0 -67
-3 -75 -6z"/>
</g>
</svg>
